<svg width="77" height="78" viewBox="0 0 77 78" fill="none" xmlns="http://www.w3.org/2000/svg">
<circle cx="38.5" cy="38.7002" r="36.58" fill="#3C77CF" stroke="#3C77CF" stroke-width="3.84"/>
<path d="M14.1667 55.8672V47.1172C14.1667 45.8776 14.594 44.8385 15.4486 44C16.3031 43.1615 17.3304 42.7422 18.5304 42.7422H25.6758C26.4031 42.7422 27.094 42.9245 27.7486 43.2891C28.4031 43.6536 28.9304 44.1458 29.3304 44.7656C30.3849 46.1875 31.6849 47.2995 33.2304 48.1016C34.7758 48.9036 36.4213 49.3047 38.1667 49.3047C39.9486 49.3047 41.6122 48.9036 43.1577 48.1016C44.7031 47.2995 45.9849 46.1875 47.0031 44.7656C47.4758 44.1458 48.0304 43.6536 48.6667 43.2891C49.3031 42.9245 49.9667 42.7422 50.6577 42.7422H57.8031C59.0395 42.7422 60.0758 43.1615 60.9122 44C61.7486 44.8385 62.1667 45.8776 62.1667 47.1172V55.8672H46.894V50.8906C45.6213 51.8021 44.2486 52.4948 42.7758 52.9688C41.3031 53.4427 39.7667 53.6797 38.1667 53.6797C36.6031 53.6797 35.0758 53.4336 33.5849 52.9414C32.094 52.4492 30.7122 51.7474 29.4395 50.8359V55.8672H14.1667ZM38.1667 47.1172C36.7849 47.1172 35.4758 46.7982 34.2395 46.1602C33.0031 45.5221 31.9667 44.638 31.1304 43.5078C30.5122 42.5964 29.7395 41.8763 28.8122 41.3477C27.8849 40.819 26.8758 40.5547 25.7849 40.5547C26.5849 39.2057 28.2758 38.1393 30.8577 37.3555C33.4395 36.5716 35.8758 36.1797 38.1667 36.1797C40.4577 36.1797 42.894 36.5716 45.4758 37.3555C48.0577 38.1393 49.7486 39.2057 50.5486 40.5547C49.494 40.5547 48.494 40.819 47.5486 41.3477C46.6031 41.8763 45.8213 42.5964 45.2031 43.5078C44.4031 44.6745 43.3849 45.5677 42.1486 46.1875C40.9122 46.8073 39.5849 47.1172 38.1667 47.1172ZM20.7122 40.5547C18.894 40.5547 17.3486 39.9167 16.0758 38.6406C14.8031 37.3646 14.1667 35.8151 14.1667 33.9922C14.1667 32.1328 14.8031 30.5742 16.0758 29.3164C17.3486 28.0586 18.894 27.4297 20.7122 27.4297C22.5667 27.4297 24.1213 28.0586 25.3758 29.3164C26.6304 30.5742 27.2577 32.1328 27.2577 33.9922C27.2577 35.8151 26.6304 37.3646 25.3758 38.6406C24.1213 39.9167 22.5667 40.5547 20.7122 40.5547ZM55.6213 40.5547C53.8031 40.5547 52.2577 39.9167 50.9849 38.6406C49.7122 37.3646 49.0758 35.8151 49.0758 33.9922C49.0758 32.1328 49.7122 30.5742 50.9849 29.3164C52.2577 28.0586 53.8031 27.4297 55.6213 27.4297C57.4758 27.4297 59.0304 28.0586 60.2849 29.3164C61.5395 30.5742 62.1667 32.1328 62.1667 33.9922C62.1667 35.8151 61.5395 37.3646 60.2849 38.6406C59.0304 39.9167 57.4758 40.5547 55.6213 40.5547ZM38.1667 33.9922C36.3486 33.9922 34.8031 33.3542 33.5304 32.0781C32.2577 30.8021 31.6213 29.2526 31.6213 27.4297C31.6213 25.5703 32.2577 24.0117 33.5304 22.7539C34.8031 21.4961 36.3486 20.8672 38.1667 20.8672C40.0213 20.8672 41.5758 21.4961 42.8304 22.7539C44.0849 24.0117 44.7122 25.5703 44.7122 27.4297C44.7122 29.2526 44.0849 30.8021 42.8304 32.0781C41.5758 33.3542 40.0213 33.9922 38.1667 33.9922Z" fill="white"/>
</svg>
